<?xml version="1.0" encoding="UTF-8"?>
<svg version="1.1" xmlns="http://www.w3.org/2000/svg" width="200" height="200">
<path d="M0 0 C1.79093191 -0.08086147 3.58289628 -0.13912702 5.375 -0.1875 C6.87160156 -0.23970703 6.87160156 -0.23970703 8.3984375 -0.29296875 C9.25695312 -0.19628906 10.11546875 -0.09960938 11 0 C13 3 13 3 13 7 C13.66 6.67 14.32 6.34 15 6 C15 5.34 15 4.68 15 4 C18.67302774 4.63467759 22.33669255 5.31162554 26 6 C26.80566406 6.13277344 27.61132812 6.26554687 28.44140625 6.40234375 C30.5625 6.8125 30.5625 6.8125 34 8 C35.25 10.5625 35.25 10.5625 36 13 C38.04105639 13.88693303 38.04105639 13.88693303 40 14 C40.66 12.68 41.32 11.36 42 10 C42.66 10 43.32 10 44 10 C44 13.33333333 44 16.66666667 44 20 C44.598125 19.34 45.19625 18.68 45.8125 18 C48 16 48 16 51 16 C50.505 17.485 50.505 17.485 50 19 C49.34 19 48.68 19 48 19 C48 19.66 48 20.32 48 21 C48.99 21 49.98 21 51 21 C51 22.32 51 23.64 51 25 C52.65 24.67 54.3 24.34 56 24 C56.061875 24.598125 56.12375 25.19625 56.1875 25.8125 C57.32755807 28.88188712 59.20767014 29.3499869 62 31 C66.8372093 35.8372093 66.8372093 35.8372093 67.4375 40.125 C67.01801219 42.88163416 66.29545847 44.57556769 65 47 C72.76917574 51.08627076 79.39168932 51.79052862 88 50 C92.60249781 48.21500085 94.57015534 45.16544798 97 41 C100 41 100 41 102.1875 43 C102.785625 43.66 103.38375 44.32 104 45 C104.47050781 44.65066406 104.94101563 44.30132812 105.42578125 43.94140625 C106.04839844 43.48636719 106.67101562 43.03132813 107.3125 42.5625 C107.92738281 42.11003906 108.54226562 41.65757813 109.17578125 41.19140625 C112.23242176 39.19509928 114.65509724 38.88878266 118.1953125 39.0859375 C118.99324219 39.12976563 119.79117188 39.17359375 120.61328125 39.21875 C121.44214844 39.2703125 122.27101562 39.321875 123.125 39.375 C123.96160156 39.41882813 124.79820312 39.46265625 125.66015625 39.5078125 C131.87014576 39.87014576 131.87014576 39.87014576 133 41 C133.04080783 42.99958364 133.04254356 45.00045254 133 47 C131.02 47 129.04 47 127 47 C126.65725594 48.66475686 126.32635698 50.33195323 126 52 C125.79375 53.051875 125.5875 54.10375 125.375 55.1875 C124.73925894 57.94643572 124.73925894 57.94643572 126 60 C126.039992 61.99960012 126.04346799 64.00047242 126 66 C124.2984375 66.2165625 124.2984375 66.2165625 122.5625 66.4375 C119.19222799 66.61171478 119.19222799 66.61171478 118 68 C116.5619081 67.99416596 115.12387338 67.9455257 113.6875 67.875 C109.64520017 67.80475466 108.13914232 68.42141881 105 71 C102.13811814 70.86039601 100.60825132 70.65145099 98.625 68.52734375 C96.64853824 66.66965974 95.19481689 66.26900677 92.5625 65.6875 C91.80066406 65.50574219 91.03882813 65.32398437 90.25390625 65.13671875 C87.48285817 64.96863091 86.26121768 65.40412995 84 67 C82.88831251 68.87139569 82.88831251 68.87139569 82.125 71 C81.12890625 73.1875 81.12890625 73.1875 80 75 C78.00428677 75.67939174 76.00405227 76.34561559 74 77 C72.01400062 79.4993517 70.48296957 82.17842073 69 85 C68.09121094 84.83951172 68.09121094 84.83951172 67.1640625 84.67578125 C59.14177334 83.5279768 52.40182115 84.73220295 45.375 88.875 C41.02414205 92.20997367 38.6139114 97.2364453 35.9921875 101.94140625 C33.9465326 105.08208818 31.9636077 106.76072453 29 109 C28.58621094 109.72058594 28.17242187 110.44117188 27.74609375 111.18359375 C24.81083365 114.23705224 21.12898275 113.87926718 17.0625 114.0625 C16.25103516 114.13404297 15.43957031 114.20558594 14.60351562 114.27929688 C12.29071354 114.40641561 10.2752156 114.44087813 8 114 C5.6953125 111.57421875 5.6953125 111.57421875 4 109 C1.94567977 108.03699604 1.94567977 108.03699604 -0.1875 107.75 C-4 107 -4 107 -5 106 C-5.04063832 104.33382885 -5.042721 102.66611905 -5 101 C-4.195625 100.773125 -3.39125 100.54625 -2.5625 100.3125 C0.24661334 99.24836707 0.24661334 99.24836707 0.875 96.4375 C0.91625 95.633125 0.9575 94.82875 1 94 C0.67 93.67 0.34 93.34 0 93 C-0.35555556 87.66666667 -0.35555556 87.66666667 1 85.125 C3.08909061 80.68568246 2.15331344 75.85019271 1.3125 71.1875 C0.23594148 67.97061064 0.23594148 67.97061064 -2 66.0625 C-5.11583364 64.95897559 -6.48138067 65.07804389 -9.6875 65.375 C-13.36836155 65.53503746 -14.7285401 65.18968118 -17.80078125 63.04296875 C-20.28110832 60.76365226 -22.63932264 58.40153524 -25 56 C-27.98594424 54.50702788 -30.70853624 54.88244772 -34 55 C-34.99 55.495 -34.99 55.495 -36 56 C-43.46666667 56.35555556 -43.46666667 56.35555556 -47 54 C-47.625 51.75 -47.625 51.75 -47 49 C-42.77324468 43.7593501 -37.35771218 41.64349022 -31 40 C-30.92523437 39.23945312 -30.85046875 38.47890625 -30.7734375 37.6953125 C-29.79091769 34.27137983 -28.64265359 33.66215407 -25.625 31.875 C-21.46040695 29.36778069 -21.46040695 29.36778069 -18 26 C-18 25.34 -18 24.68 -18 24 C-17.13375 24.433125 -16.2675 24.86625 -15.375 25.3125 C-14.26125 25.539375 -13.1475 25.76625 -12 26 C-9.2332387 23.9684092 -9.2332387 23.9684092 -7.57421875 22.31640625 C-3.93895447 19.27649543 0.44479247 19 5 19 C5.96624167 17.32171592 5.96624167 17.32171592 6 15 C4.75083056 13.58646616 3.49803713 12.1756896 2.21484375 10.79296875 C0.01770979 7.55025335 0.09342249 3.82182914 0 0 Z M36 14 C35.67 14.66 35.34 15.32 35 16 C35.66 16 36.32 16 37 16 C36.67 15.34 36.34 14.68 36 14 Z " fill="#000000" transform="translate(57,43)"/>
</svg>
